<svg width="420" height="420" viewBox="0 0 420 420" fill="none" xmlns="http://www.w3.org/2000/svg">
<path fill-rule="evenodd" clip-rule="evenodd" d="M101.5 191C52.0705 191 12 150.929 12 101.5C12 52.0705 52.0705 12 101.5 12H318.5C367.929 12 408 52.0705 408 101.5C408 150.929 367.929 191 318.5 191H101.5ZM0 101.5C0 157.557 45.4431 203 101.5 203H318.5C374.557 203 420 157.557 420 101.5C420 45.4431 374.557 0 318.5 0H101.5C45.4431 0 0 45.4431 0 101.5ZM103 164C68.7584 164 41 136.242 41 102C41 67.7583 68.7584 40 103 40C137.242 40 165 67.7583 165 102C165 136.242 137.242 164 103 164ZM29 102C29 142.869 62.1309 176 103 176C143.869 176 177 142.869 177 102C177 61.1309 143.869 28 103 28C62.1309 28 29 61.1309 29 102Z" fill="white"/>
<path d="M41 102C41 136.242 68.7584 164 103 164C137.242 164 165 136.242 165 102C165 67.7583 137.242 40 103 40C68.7584 40 41 67.7583 41 102Z" fill="white"/>
<path fill-rule="evenodd" clip-rule="evenodd" d="M101.5 229C48.7568 229 6 271.757 6 324.5C6 377.243 48.7568 420 101.5 420H318.5C371.243 420 414 377.243 414 324.5C414 271.757 371.243 229 318.5 229H101.5ZM317 393C354.555 393 385 362.555 385 325C385 287.445 354.555 257 317 257C279.445 257 249 287.445 249 325C249 362.555 279.445 393 317 393Z" fill="white"/>
</svg>
