<svg width="33" height="28" viewBox="0 0 33 28" fill="none" xmlns="http://www.w3.org/2000/svg">
<path d="M16.5 22.6147C16.6328 22.6147 16.8486 22.5649 17.0562 22.4487C21.7793 19.8008 23.3979 18.6802 23.3979 15.6504V9.30029C23.3979 8.42871 23.0244 8.15479 22.3188 7.85596C21.3394 7.44922 18.1768 6.31201 17.1973 5.97168C16.9731 5.89697 16.7324 5.84717 16.5 5.84717C16.2676 5.84717 16.0269 5.91357 15.811 5.97168C14.8315 6.25391 11.6606 7.45752 10.6812 7.85596C9.98389 8.14648 9.60205 8.42871 9.60205 9.30029V15.6504C9.60205 18.6802 11.229 19.7925 15.9438 22.4487C16.1597 22.5649 16.3672 22.6147 16.5 22.6147ZM16.832 7.2583C18.0854 7.75635 20.5176 8.63623 21.8042 9.07617C22.0283 9.15918 22.0781 9.27539 22.0781 9.55762V15.3433C22.0781 17.9082 20.8496 18.5806 17.0146 20.9131C16.7739 21.0625 16.6411 21.104 16.5083 21.1123V7.18359C16.5913 7.18359 16.6992 7.2085 16.832 7.2583Z" fill="#737373"/>
</svg>
